<?xml version="1.0" encoding="utf-8"?>
<!-- Generator: Adobe Illustrator 22.0.1, SVG Export Plug-In . SVG Version: 6.00 Build 0)  -->
<svg version="1.1" id="Layer_1" xmlns="http://www.w3.org/2000/svg" xmlns:xlink="http://www.w3.org/1999/xlink" x="0px" y="0px"
	 viewBox="0 0 70.3 30.1" style="enable-background:new 0 0 70.3 30.1;" xml:space="preserve">
<style type="text/css">
	.st0{fill:#FFFFFF;}
</style>
<g>
	<g>
		
			<image style="overflow:visible;enable-background:new    ;" width="300" height="138" xlink:href="4CFD892B.png"  transform="matrix(0.233 0 0 0.233 0.1685 -0.24)">
		</image>
		<g>
			<g>
				<path class="st0" d="M12.2,14.6c0,2.4-0.2,4.8-0.6,7.1s-1.1,4.4-1.9,6.3c-0.1,0.3-0.4,0.5-0.8,0.7C8.4,28.9,8,29,7.6,29
					c-0.3,0-0.5-0.1-0.7-0.2c-1.5-0.6-3-1.8-4.4-3.7c-0.1-0.1-0.1-0.3-0.1-0.4c0-0.3,0.2-0.6,0.7-0.9s0.9-0.4,1.4-0.4
					c0.4,0,0.6,0.1,0.7,0.3c0.7,1,1.5,1.8,2.5,2.6c0.6-1.7,1-3.6,1.3-5.5s0.4-3.9,0.4-5.9c0-2.7-0.3-5.2-0.8-7.4
					c-0.2-0.5-0.2-0.8,0-1C8.8,6.2,9.1,6,9.4,5.9s0.7-0.2,1-0.2c0.2,0,0.4,0,0.5,0.1c0.2,0.1,0.2,0.2,0.3,0.4
					C11.8,8.8,12.2,11.6,12.2,14.6z M7.8,4.4c0,0.2,0.2,0.3,0.6,0.4h0.3c0.3,0,0.5-0.1,0.8-0.2s0.6-0.3,0.8-0.5
					c0.2-0.2,0.3-0.5,0.3-0.8c-0.2-0.7-0.3-1.2-0.4-1.7c0-0.1-0.1-0.2-0.2-0.3s-0.3,0-0.4,0H9.4c-0.3,0-0.6,0.1-0.8,0.2
					c-0.4,0-0.7,0.2-0.9,0.4C7.4,2.1,7.3,2.4,7.4,2.6L7.8,4.4z"/>
				<path class="st0" d="M22.8,7.9c0.6,0.5,1,1.2,1.3,1.9s0.4,1.5,0.4,2.3c0,1-0.2,1.9-0.6,2.9s-0.9,1.9-1.5,2.8
					c-0.6,0.8-1.4,1.5-2.2,2c-0.7,0.5-1.5,0.7-2.2,0.7s-1.3-0.2-1.9-0.7s-0.9-1.1-1.2-1.9s-0.4-1.8-0.4-2.8c0-0.6,0-1.2,0.1-1.8
					c-0.1,0-0.3,0-0.5,0c-0.5,0-0.8-0.2-0.8-0.6c0-0.1,0-0.2,0-0.3c0.5-1.5,1.4-2.9,2.5-4s2.4-1.7,3.8-1.7c0.2,0,0.5,0,0.9,0.1
					C21.5,7.1,22.2,7.4,22.8,7.9z M21.7,12.7c0-0.7-0.1-1.4-0.4-2s-0.6-1.1-1.2-1.5c-0.4-0.3-0.7-0.4-1-0.4c-0.1,0-0.3,0-0.5,0.1
					c0.1,0.1,0.2,0.2,0.2,0.3s0,0.2-0.1,0.3c-0.4,0.7-0.7,1.5-0.9,2.3c-0.2,0.8-0.3,1.7-0.3,2.5c0,1,0.1,1.9,0.4,2.8
					c0.2,0.5,0.4,0.9,0.6,1.1c0.1,0.1,0.2,0.2,0.3,0.2c0.5-0.3,0.9-0.8,1.3-1.4s0.7-1.2,1-1.8C21.5,14.5,21.7,13.6,21.7,12.7z"/>
				<path class="st0" d="M32.5,6.3c0.2,0.1,0.4,0.3,0.6,0.7c0.1,0.2,0.2,0.4,0.2,0.5c0,0.4-0.2,0.6-0.7,0.6l-0.8,0.1
					c-0.8,0.1-1.2,0.2-1.3,0.2c-0.3,2.6-0.5,4.8-0.7,6.7s-0.3,3.8-0.3,5.6c0,0.2-0.1,0.4-0.3,0.5c-0.2,0.1-0.4,0.2-0.7,0.2
					c-0.5,0-1-0.1-1.4-0.4c-0.5-0.3-0.7-0.6-0.7-0.9c0-1.7,0.1-3.5,0.3-5.2c0.1-1.8,0.3-3.8,0.6-6.2l-1.5,0.2c-0.2,0-0.4,0-0.5,0
					s-0.2-0.1-0.4-0.3c-0.1-0.1-0.2-0.3-0.3-0.5c-0.1-0.2-0.2-0.4-0.2-0.5s0.1-0.3,0.2-0.4S24.9,7,25.1,7c0.4,0,0.8-0.1,1.2-0.2
					l1.2-0.2L28,2.4c0-0.5,0.4-0.7,1-0.7c0.5,0,1,0.1,1.4,0.4C30.9,2.4,31.1,2.7,31,3l-0.3,3.2c0.5,0,0.8-0.1,1-0.1
					C32.1,6.1,32.3,6.2,32.5,6.3z"/>
				<path class="st0" d="M41.4,6.3C41.6,6.4,41.8,6.6,42,7c0.1,0.2,0.2,0.4,0.2,0.5c0,0.4-0.2,0.6-0.7,0.6l-0.8,0.1
					c-0.8,0.1-1.2,0.2-1.3,0.2c-0.3,2.6-0.5,4.8-0.7,6.7s-0.3,3.8-0.3,5.6c0,0.2-0.1,0.4-0.3,0.5s-0.4,0.2-0.7,0.2
					c-0.5,0-1-0.1-1.4-0.4c-0.5-0.3-0.7-0.6-0.7-0.9c0-1.7,0.1-3.5,0.3-5.2c0.1-1.8,0.3-3.8,0.6-6.2l-1.5,0.2c-0.2,0-0.4,0-0.5,0
					S34,8.8,33.8,8.6c-0.1-0.1-0.2-0.3-0.3-0.5s-0.2-0.4-0.2-0.5s0.1-0.3,0.2-0.4S33.8,7,34,7c0.4,0,0.8-0.1,1.2-0.2l1.2-0.2
					l0.4-4.2c0-0.5,0.4-0.7,1-0.7c0.5,0,1,0.1,1.4,0.4C39.8,2.4,40,2.7,39.9,3l-0.3,3.2c0.5,0,0.8-0.1,1-0.1
					C41,6.1,41.2,6.2,41.4,6.3z"/>
				<path class="st0" d="M43.6,6.7c0.5-0.2,0.9-0.4,1.4-0.4c0.3,0,0.5,0.1,0.6,0.2c0.2,0.1,0.2,0.3,0.2,0.5l-0.7,13.1
					c0,0.3-0.3,0.6-0.7,0.9c-0.5,0.3-0.9,0.4-1.4,0.4c-0.6,0-0.9-0.2-0.9-0.7l0.7-13.1C43,7.2,43.2,6.9,43.6,6.7z M43.1,4.9
					C43.2,5,43.4,5,43.7,5c0.4,0,0.9-0.1,1.3-0.4s0.7-0.5,0.7-0.9C45.9,3,46,2.4,46,2c0.1-0.4-0.2-0.6-0.7-0.6
					c-0.4,0-0.9,0.1-1.4,0.4s-0.7,0.5-0.7,0.8l-0.3,1.8C42.9,4.6,42.9,4.8,43.1,4.9z"/>
				<path class="st0" d="M55.3,11.1c0,0,0,1.3,0,3.9c0,1.3,0,2.5,0.1,3.8c0,0.1,0,0.2,0,0.2s0,0.1,0,0.2l0,0l0,0
					c-0.1,0.3-0.3,0.5-0.7,0.7s-0.7,0.3-1.1,0.4c-0.6,0.1-1-0.1-1.2-0.5c-0.6-1.5-1.5-3.6-2.7-6.3L49.5,13c-0.1,2-0.2,4.2-0.2,6.5
					c0,0.3-0.2,0.6-0.7,0.9s-0.9,0.4-1.4,0.4c-0.3,0-0.5-0.1-0.7-0.2s-0.3-0.3-0.2-0.6c0.1-4.4,0.4-8.5,0.9-12.4V7.5
					c0-0.4,0.2-0.7,0.7-1s0.9-0.4,1.4-0.4s0.8,0.2,0.9,0.5c0.5,1.4,1.3,3.2,2.3,5.4c0.1-1.5,0.3-3.1,0.5-4.6c0-0.3,0.3-0.6,0.8-0.9
					c0.5-0.2,0.9-0.4,1.4-0.4c0.6,0,0.8,0.2,0.8,0.6C55.5,9.7,55.3,11.1,55.3,11.1z"/>
				<path class="st0" d="M67.9,12.1c0.1,1,0.2,2.1,0.2,3.3c0,1.3-0.1,2.6-0.2,3.7c0,0.3-0.3,0.6-0.7,0.9c-0.5,0.3-0.9,0.4-1.3,0.4
					c-0.3,0-0.5-0.1-0.6-0.2s-0.2-0.3-0.2-0.5c0.2-1.5,0.2-2.8,0.2-3.9c-0.5,1.3-1.2,2.3-2,3.2c-0.9,0.9-1.8,1.3-3,1.3
					c-0.2,0-0.5,0-0.7-0.1c-1-0.2-1.8-0.7-2.2-1.4c-0.5-0.8-0.7-1.7-0.7-2.9c0-1.1,0.2-2.4,0.6-3.7c0.3-1,0.7-2,1.3-2.9
					c0.6-0.9,1.3-1.7,2.1-2.3s1.7-0.9,2.7-0.9c0.8,0,1.5,0.2,1.8,0.5s0.6,0.7,0.6,1.3c0,0.7-0.2,1.4-0.7,2.2s-1,1.4-1.5,1.8
					c-0.2,0.1-0.4,0.2-0.7,0.3s-0.5,0.1-0.8,0.1s-0.5,0-0.7-0.1s-0.3-0.2-0.3-0.3c0-0.2,0.2-0.5,0.5-0.7c0.2-0.2,0.5-0.6,0.9-1.1
					C62.9,9.5,63,9,63,8.7c0-0.3-0.2-0.5-0.5-0.5c-0.5,0-1.1,0.7-1.7,2.2c-0.4,0.7-0.6,1.5-0.8,2.4c-0.2,1-0.3,2-0.3,2.9
					c0,1.6,0.4,2.4,1.3,2.6c0.3,0,0.7-0.2,1-0.8c0.3-0.6,0.6-1.2,0.9-2c-0.2,0.1-0.5,0.3-0.9,0.5c-0.3,0.1-0.5,0.2-0.8,0.2
					s-0.6-0.1-0.7-0.2c-0.1-0.1-0.1-0.2-0.1-0.4c0-0.1,0-0.3,0.1-0.4c0.1-0.1,0.2-0.2,0.3-0.3c2-1.4,4-2.5,5.8-3.4
					c0.1-0.1,0.3-0.1,0.5-0.1c0.3,0,0.6,0.1,0.8,0.2C67.8,11.6,67.9,11.8,67.9,12.1L67.9,12.1z"/>
			</g>
		</g>
	</g>
	<g>
		<path class="st0" d="M12.1,14.5c0,2.4-0.2,4.8-0.6,7.1c-0.4,2.3-1.1,4.4-1.9,6.3c-0.1,0.3-0.4,0.5-0.8,0.7
			c-0.5,0.2-0.9,0.3-1.3,0.3c-0.3,0-0.5-0.1-0.7-0.2c-1.6-0.6-3-1.8-4.4-3.8c-0.1-0.1-0.1-0.3-0.1-0.4c0-0.3,0.2-0.7,0.7-0.9
			s0.9-0.4,1.4-0.4c0.4,0,0.6,0.1,0.7,0.3c0.7,1,1.5,1.8,2.5,2.6c0.6-1.7,1-3.6,1.3-5.5c0.3-2,0.4-3.9,0.4-5.9C9.3,12,9,9.5,8.5,7.3
			C8.4,7,8.5,6.8,8.7,6.6C8.8,6.2,9,6,9.4,5.8c0.3-0.1,0.7-0.2,1-0.2c0.2,0,0.4,0,0.5,0.1s0.2,0.3,0.3,0.4
			C11.8,8.7,12.1,11.5,12.1,14.5z M7.7,4.3c0,0.2,0.2,0.3,0.6,0.4h0.3c0.3,0,0.5-0.1,0.8-0.2C9.7,4.4,10,4.3,10.3,4
			c0.2-0.2,0.3-0.5,0.3-0.8c-0.2-0.7-0.3-1.3-0.4-1.7c0-0.1-0.1-0.2-0.2-0.3c-0.2,0-0.4,0-0.5,0H9.3c-0.3,0-0.6,0-0.8,0.1
			C8.1,1.4,7.8,1.6,7.6,1.8C7.3,2,7.3,2.3,7.3,2.6L7.7,4.3z"/>
		<path class="st0" d="M22.8,7.9c0.6,0.5,1,1.2,1.3,1.9c0.3,0.8,0.4,1.5,0.4,2.3c0,1-0.2,1.9-0.6,2.9s-0.9,1.9-1.5,2.8
			c-0.6,0.8-1.4,1.5-2.2,2c-0.7,0.5-1.5,0.7-2.2,0.7s-1.3-0.2-1.9-0.7c-0.5-0.4-0.9-1.1-1.2-1.9s-0.4-1.8-0.4-2.8
			c0-0.6,0-1.2,0.1-1.8c-0.1,0-0.3,0-0.5,0c-0.5,0-0.8-0.2-0.8-0.6c0-0.1,0-0.2,0-0.3c0.5-1.5,1.4-2.9,2.5-4s2.4-1.7,3.8-1.7
			c0.2,0,0.5,0,0.9,0.1C21.5,7,22.2,7.3,22.8,7.9z M21.6,12.6c0-0.7-0.1-1.4-0.4-2C21,10,20.6,9.5,20.1,9.2c-0.4-0.3-0.7-0.4-1-0.4
			c-0.1,0-0.3,0-0.5,0.1c0.1,0.1,0.2,0.2,0.2,0.3s0,0.2-0.1,0.3c-0.4,0.7-0.7,1.5-0.9,2.3c-0.2,0.8-0.3,1.7-0.3,2.5
			c0,1,0.1,1.9,0.4,2.8c0.2,0.5,0.4,0.9,0.6,1.1c0.1,0.1,0.2,0.2,0.3,0.2c0.5-0.3,0.9-0.8,1.3-1.4s0.7-1.2,1-1.8
			C21.4,14.5,21.6,13.6,21.6,12.6z"/>
		<path class="st0" d="M32.5,6.2c0.2,0.1,0.4,0.3,0.6,0.7c0.1,0.2,0.2,0.4,0.2,0.5c0,0.4-0.2,0.6-0.7,0.6l-0.8,0.1
			c-0.8,0.1-1.2,0.2-1.3,0.2c-0.3,2.6-0.5,4.8-0.7,6.7s-0.3,3.8-0.3,5.6c0,0.2-0.1,0.4-0.3,0.5c-0.2,0.1-0.4,0.2-0.7,0.2
			c-0.5,0-1-0.1-1.4-0.4c-0.5-0.3-0.7-0.6-0.7-0.9c0-1.7,0.1-3.5,0.3-5.2c0.1-1.8,0.3-3.9,0.6-6.2l-1.5,0.2c-0.2,0-0.4,0-0.5,0
			s-0.2-0.1-0.4-0.3c-0.1-0.1-0.2-0.3-0.3-0.5c-0.1-0.2-0.2-0.4-0.2-0.5s0.1-0.3,0.2-0.4s0.3-0.2,0.5-0.2c0.4,0,0.8-0.1,1.2-0.2
			l1.2-0.2L28,2.3c0-0.5,0.4-0.7,1-0.7c0.5,0,1,0.1,1.4,0.4c0.5,0.3,0.7,0.6,0.6,0.9l-0.3,3.2c0.5,0,0.8-0.1,1-0.1
			C32.1,6,32.3,6.1,32.5,6.2z"/>
		<path class="st0" d="M41.4,6.2c0.2,0.1,0.4,0.3,0.6,0.7c0.1,0.2,0.2,0.4,0.2,0.5C42.2,7.7,42,8,41.5,8l-0.8,0.1
			c-0.8,0.1-1.2,0.2-1.3,0.2c-0.3,2.6-0.5,4.8-0.7,6.7s-0.3,3.8-0.3,5.6c0,0.2-0.1,0.4-0.3,0.5s-0.4,0.2-0.7,0.2
			c-0.5,0-1-0.1-1.4-0.4c-0.5-0.3-0.7-0.6-0.7-0.9c0-1.7,0.1-3.5,0.3-5.2c0.1-1.8,0.3-3.9,0.6-6.2l-1.5,0.2c-0.2,0-0.4,0-0.5,0
			S34,8.7,33.8,8.5c-0.1-0.1-0.2-0.3-0.3-0.5s-0.2-0.4-0.2-0.5s0.1-0.3,0.2-0.4C33.6,7,33.8,6.9,34,6.9c0.4,0,0.8-0.1,1.2-0.2
			l1.2-0.2l0.4-4.2c0-0.5,0.4-0.7,1-0.7c0.5,0,1,0.1,1.4,0.4C39.8,2.3,40,2.6,40,2.9l-0.3,3.2c0.5,0,0.8-0.1,1-0.1
			C41,6,41.2,6.1,41.4,6.2z"/>
		<path class="st0" d="M43.7,6.6c0.5-0.3,0.9-0.4,1.4-0.4c0.3,0,0.5,0.1,0.6,0.2c0.2,0.1,0.2,0.3,0.2,0.5l-0.7,13.2
			c0,0.3-0.3,0.6-0.7,0.9c-0.5,0.3-0.9,0.4-1.4,0.4c-0.6,0-0.9-0.2-0.9-0.7L43,7.5C43,7.2,43.2,6.9,43.7,6.6z M43.1,4.8
			C43.3,4.9,43.5,5,43.7,5c0.4,0,0.9-0.1,1.3-0.4c0.5-0.2,0.7-0.5,0.8-0.9c0.1-0.8,0.2-1.4,0.3-1.8s-0.2-0.6-0.8-0.6
			c-0.4,0-0.9,0.1-1.4,0.4c-0.5,0.2-0.7,0.5-0.8,0.8l-0.3,1.8C42.9,4.5,42.9,4.7,43.1,4.8z"/>
		<path class="st0" d="M55.4,11.1c0,0,0,1.3,0,3.9c0,1.3,0,2.5,0.1,3.8c0,0.1,0,0.2,0,0.2s0,0.1,0,0.2l0,0l0,0
			c-0.1,0.3-0.3,0.5-0.7,0.7s-0.7,0.3-1.1,0.4c-0.6,0.1-1-0.1-1.2-0.5c-0.6-1.5-1.5-3.6-2.7-6.3l-0.3-0.7c-0.1,2-0.2,4.2-0.2,6.5
			c0,0.3-0.2,0.6-0.7,0.9s-0.9,0.4-1.4,0.4c-0.3,0-0.5-0.1-0.7-0.2s-0.3-0.3-0.2-0.6c0.1-4.4,0.4-8.6,0.9-12.5V7.2
			c0-0.4,0.2-0.7,0.7-1C48.4,6.1,48.8,6,49.3,6s0.8,0.2,0.9,0.5c0.5,1.4,1.3,3.2,2.3,5.4c0.1-1.5,0.3-3.1,0.5-4.6
			c0-0.3,0.3-0.6,0.8-0.9C54.3,6.2,54.7,6,55.2,6C55.8,6,56,6.2,56,6.6C55.6,9.6,55.4,11.1,55.4,11.1z"/>
		<path class="st0" d="M68,12.1c0.1,1,0.2,2.1,0.2,3.3c0,1.3-0.1,2.6-0.2,3.8c0,0.3-0.3,0.6-0.8,0.9s-0.9,0.4-1.3,0.4
			c-0.3,0-0.5-0.1-0.6-0.2C65,20.1,65,19.9,65,19.7c0.2-1.5,0.2-2.8,0.2-4c-0.5,1.3-1.2,2.4-2,3.2c-0.9,0.9-1.9,1.3-3,1.3
			c-0.2,0-0.5,0-0.7-0.1c-1.1-0.2-1.8-0.7-2.3-1.4c-0.5-0.8-0.7-1.7-0.7-2.9c0-1.1,0.2-2.4,0.6-3.7c0.3-1,0.7-2,1.3-2.9
			C59,8.4,59.7,7.6,60.5,7s1.7-0.9,2.7-0.9c0.8,0,1.5,0.2,1.8,0.5c0.4,0.3,0.6,0.8,0.6,1.3c0,0.7-0.2,1.4-0.7,2.2s-1,1.4-1.6,1.8
			c-0.2,0.1-0.4,0.2-0.7,0.3s-0.5,0.1-0.8,0.1s-0.5,0-0.7-0.1S61,12,61,11.8s0.2-0.5,0.5-0.7c0.2-0.2,0.5-0.6,0.9-1.2
			c0.4-0.6,0.5-1.1,0.5-1.4c0-0.3-0.2-0.5-0.5-0.5c-0.5,0-1.1,0.7-1.7,2.2c-0.4,0.7-0.6,1.5-0.8,2.4c-0.2,1-0.3,2-0.3,2.9
			c0,1.6,0.4,2.4,1.3,2.6c0.3,0,0.7-0.2,1-0.8c0.3-0.6,0.6-1.2,0.9-2c-0.2,0.1-0.5,0.3-0.9,0.5C61.4,16,61.1,16,60.8,16
			s-0.6-0.1-0.7-0.2C60,15.7,60,15.6,60,15.4c0-0.1,0-0.3,0.1-0.4c0.1-0.1,0.2-0.2,0.3-0.3c2.1-1.4,4-2.5,5.9-3.4
			c0.1-0.1,0.3-0.1,0.5-0.1c0.3,0,0.6,0.1,0.8,0.2C67.9,11.6,68,11.8,68,12.1C67.9,12,68,12,68,12.1z"/>
	</g>
</g>
</svg>
